<svg viewBox="0 0 32 32" fill="none" xmlns="http://www.w3.org/2000/svg">
<path d="M345.562 147.229L314.928 137.517L329.353 110.075C330.816 107.203 331.305 103.969 330.753 100.821C330.202 97.6735 328.636 94.7659 326.274 92.5L291.75 59.6625C289.355 57.3821 286.269 55.8732 282.925 55.3477C279.582 54.8223 276.149 55.3069 273.11 56.7333L244.26 70.4541L234.048 41.3166C232.97 38.2794 230.923 35.6375 228.192 33.7586C225.461 31.8796 222.183 30.8571 218.812 30.8333H170.187C166.79 30.825 163.475 31.8326 160.712 33.7138C157.949 35.595 155.877 38.2546 154.79 41.3166L144.578 70.4541L115.727 56.7333C112.708 55.3424 109.308 54.8772 105.999 55.4019C102.689 55.9265 99.6323 57.4152 97.25 59.6625L62.7262 92.5C60.3288 94.778 58.7423 97.7135 58.19 100.894C57.6376 104.074 58.147 107.339 59.6467 110.229L74.0721 137.671L43.4383 147.383C40.2452 148.409 37.4676 150.356 35.4922 152.953C33.5167 155.551 32.4417 158.669 32.4167 161.875V208.125C32.4079 211.357 33.4673 214.51 35.4451 217.138C37.4229 219.766 40.219 221.737 43.4383 222.771L74.0721 232.483L59.6467 259.925C58.1843 262.797 57.6952 266.031 58.2468 269.178C58.7984 272.326 60.3636 275.234 62.7262 277.5L97.25 310.337C99.645 312.618 102.731 314.127 106.075 314.652C109.418 315.178 112.851 314.693 115.89 313.267L144.74 299.546L154.952 328.683C156.039 331.745 158.111 334.405 160.874 336.286C163.637 338.167 166.952 339.175 170.35 339.167H218.975C222.373 339.175 225.687 338.167 228.45 336.286C231.214 334.405 233.285 331.745 234.372 328.683L244.584 299.546L273.435 313.267C276.435 314.622 279.801 315.069 283.077 314.545C286.353 314.021 289.381 312.552 291.75 310.337L326.274 277.5C328.671 275.222 330.258 272.286 330.81 269.106C331.362 265.926 330.853 262.661 329.353 259.771L314.928 232.329L345.562 222.617C348.755 221.591 351.532 219.644 353.508 217.046C355.483 214.449 356.558 211.331 356.583 208.125V161.875C356.592 158.643 355.533 155.49 353.555 152.862C351.577 150.234 348.781 148.263 345.562 147.229ZM324.167 197.025L304.717 203.192C300.244 204.572 296.141 206.86 292.691 209.899C289.241 212.938 286.528 216.655 284.739 220.791C282.951 224.927 282.129 229.384 282.332 233.852C282.535 238.32 283.758 242.693 285.915 246.667L295.154 264.242L277.325 281.2L259.333 271.95C255.177 269.98 250.624 268.883 245.983 268.732C241.342 268.582 236.721 269.382 232.433 271.077C228.145 272.773 224.29 275.325 221.129 278.561C217.968 281.797 215.575 285.641 214.112 289.833L207.629 308.333H181.858L175.374 289.833C173.923 285.579 171.517 281.676 168.322 278.395C165.127 275.114 161.22 272.533 156.871 270.832C152.523 269.13 147.837 268.349 143.139 268.542C138.442 268.735 133.845 269.898 129.667 271.95L111.189 280.737L93.36 263.779L103.085 246.667C105.242 242.693 106.465 238.32 106.668 233.852C106.871 229.384 106.049 224.927 104.261 220.791C102.472 216.655 99.7587 212.938 96.309 209.899C92.8594 206.86 88.7559 204.572 84.2833 203.192L64.8333 197.025V172.975L84.2833 166.808C88.7559 165.428 92.8594 163.14 96.309 160.1C99.7587 157.061 102.472 153.345 104.261 149.209C106.049 145.073 106.871 140.616 106.668 136.148C106.465 131.68 105.242 127.307 103.085 123.333L93.8462 106.221L111.675 89.2625L129.667 98.05C133.845 100.102 138.442 101.265 143.139 101.458C147.837 101.651 152.523 100.87 156.871 99.1683C161.22 97.4669 165.127 94.8861 168.322 91.605C171.517 88.3238 173.923 84.4208 175.374 80.1666L181.858 61.6666H207.142L213.626 80.1666C215.077 84.4208 217.483 88.3238 220.678 91.605C223.873 94.8861 227.78 97.4669 232.129 99.1683C236.477 100.87 241.163 101.651 245.861 101.458C250.558 101.265 255.155 100.102 259.333 98.05L277.811 89.2625L295.64 106.221L285.915 123.333C283.844 127.287 282.691 131.617 282.532 136.032C282.374 140.446 283.215 144.842 284.998 148.92C286.78 152.999 289.464 156.665 292.866 159.672C296.268 162.678 300.309 164.954 304.717 166.346L324.167 172.512V197.025ZM194.5 123.333C181.677 123.333 169.142 126.95 158.481 133.726C147.819 140.502 139.509 150.133 134.602 161.401C129.695 172.669 128.411 185.068 130.912 197.031C133.414 208.993 139.589 219.981 148.656 228.605C157.723 237.229 169.275 243.102 181.852 245.482C194.428 247.861 207.464 246.64 219.311 241.973C231.157 237.305 241.283 229.401 248.407 219.26C255.531 209.119 259.333 197.196 259.333 185C259.333 168.645 252.503 152.96 240.344 141.395C228.185 129.83 211.695 123.333 194.5 123.333ZM194.5 215.833C188.089 215.833 181.821 214.025 176.49 210.637C171.159 207.249 167.004 202.433 164.551 196.799C162.097 191.165 161.455 184.966 162.706 178.985C163.957 173.004 167.044 167.51 171.578 163.198C176.112 158.885 181.888 155.949 188.176 154.759C194.464 153.569 200.982 154.18 206.905 156.514C212.829 158.847 217.891 162.799 221.453 167.87C225.015 172.94 226.917 178.902 226.917 185C226.917 193.177 223.501 201.02 217.422 206.802C211.343 212.585 203.097 215.833 194.5 215.833Z" fill="black"/>
</svg>
